<?xml version="1.0" standalone="no"?>
<!DOCTYPE svg PUBLIC "-//W3C//DTD SVG 20010904//EN"
 "http://www.w3.org/TR/2001/REC-SVG-20010904/DTD/svg10.dtd">
<svg version="1.0" xmlns="http://www.w3.org/2000/svg"
 width="512.000000pt" height="512.000000pt" viewBox="0 0 512.000000 512.000000"
 preserveAspectRatio="xMidYMid meet">
<metadata>
Created by potrace 1.14, written by Peter Selinger 2001-2017
</metadata>
<g transform="translate(0.000000,512.000000) scale(0.100000,-0.100000)"
fill="#000000" stroke="none">
<path d="M3557 4485 c-1 -2 -31 -5 -67 -9 -36 -3 -80 -8 -97 -11 -51 -7 -211
-54 -257 -75 -22 -10 -57 -26 -76 -34 -123 -55 -265 -162 -396 -300 l-105
-109 -47 50 c-26 28 -63 68 -83 89 -179 192 -406 317 -674 370 -148 30 -466
24 -573 -10 -11 -4 -31 -9 -44 -12 -13 -3 -27 -6 -33 -8 -56 -14 -181 -64
-215 -86 -14 -9 -42 -25 -63 -35 -60 -31 -162 -112 -234 -184 -311 -313 -441
-763 -343 -1188 43 -182 116 -346 220 -487 63 -85 72 -96 300 -336 70 -74 147
-155 170 -180 23 -25 105 -112 183 -193 77 -82 149 -158 160 -170 10 -12 58
-63 105 -113 48 -50 119 -124 157 -165 39 -41 138 -147 221 -234 185 -196 299
-317 349 -370 52 -56 296 -314 378 -399 l67 -71 71 75 c104 109 355 374 430
454 35 37 87 92 114 121 28 29 106 112 175 186 69 73 164 174 211 223 48 50
103 109 124 131 20 22 69 74 108 115 39 41 109 116 156 166 47 49 150 157 227
240 78 82 158 167 179 189 20 22 69 74 108 115 180 188 276 327 346 501 30 76
70 223 77 284 3 28 7 56 10 63 10 33 2 331 -10 351 -2 3 -7 27 -11 51 -11 74
-63 218 -116 320 -124 243 -309 427 -546 545 -76 38 -213 90 -263 100 -8 2
-36 8 -61 14 -73 17 -319 36 -332 26z"/>
</g>
</svg>
