<?xml version="1.0" encoding="UTF-8"?>
<svg xmlns="http://www.w3.org/2000/svg" xmlns:xlink="http://www.w3.org/1999/xlink" width="20px" height="20px" viewBox="0 0 20 20" version="1.1">
<g id="surface1">
<path style=" stroke:none;fill-rule:nonzero;fill:rgb(0%,0%,0%);fill-opacity:1;" d="M 1.859375 11.734375 L 8.917969 18.324219 C 9.210938 18.597656 9.597656 18.75 10 18.75 C 10.402344 18.75 10.789062 18.597656 11.082031 18.324219 L 18.140625 11.734375 C 19.328125 10.628906 20 9.078125 20 7.457031 L 20 7.230469 C 20 4.5 18.027344 2.171875 15.335938 1.722656 C 13.554688 1.425781 11.742188 2.007812 10.46875 3.28125 L 10 3.75 L 9.53125 3.28125 C 8.257812 2.007812 6.445312 1.425781 4.664062 1.722656 C 1.972656 2.171875 0 4.5 0 7.230469 L 0 7.457031 C 0 9.078125 0.671875 10.628906 1.859375 11.734375 Z M 1.859375 11.734375 "/>
</g>
</svg>
